<mxfile host="app.diagrams.net" agent="Mozilla/5.0 (Windows NT 10.0; Win64; x64) AppleWebKit/537.36 (KHTML, like Gecko) Chrome/130.0.0.0 Safari/537.36" version="24.8.3">
  <diagram name="Página-1" id="6vrjEmoiwTb1x8Nfarqo">
    <mxGraphModel dx="550" dy="934" grid="1" gridSize="10" guides="1" tooltips="1" connect="1" arrows="1" fold="1" page="1" pageScale="1" pageWidth="827" pageHeight="1169" math="0" shadow="0">
      <root>
        <mxCell id="0" />
        <mxCell id="1" parent="0" />
        <mxCell id="QjKX32XAMbgvtsEEkGVF-34" style="edgeStyle=orthogonalEdgeStyle;rounded=0;orthogonalLoop=1;jettySize=auto;html=1;entryX=0.5;entryY=0;entryDx=0;entryDy=0;" edge="1" parent="1" source="QjKX32XAMbgvtsEEkGVF-6" target="QjKX32XAMbgvtsEEkGVF-13">
          <mxGeometry relative="1" as="geometry" />
        </mxCell>
        <mxCell id="QjKX32XAMbgvtsEEkGVF-6" value="INICIO" style="rounded=0;whiteSpace=wrap;html=1;fontSize=10;" vertex="1" parent="1">
          <mxGeometry x="340" y="70" width="120" height="30" as="geometry" />
        </mxCell>
        <mxCell id="QjKX32XAMbgvtsEEkGVF-37" style="edgeStyle=orthogonalEdgeStyle;rounded=0;orthogonalLoop=1;jettySize=auto;html=1;exitX=0.5;exitY=1;exitDx=0;exitDy=0;entryX=0.5;entryY=0;entryDx=0;entryDy=0;" edge="1" parent="1" source="QjKX32XAMbgvtsEEkGVF-11" target="QjKX32XAMbgvtsEEkGVF-29">
          <mxGeometry relative="1" as="geometry" />
        </mxCell>
        <mxCell id="QjKX32XAMbgvtsEEkGVF-38" value="Sí" style="edgeLabel;html=1;align=center;verticalAlign=middle;resizable=0;points=[];" vertex="1" connectable="0" parent="QjKX32XAMbgvtsEEkGVF-37">
          <mxGeometry x="-0.2004" relative="1" as="geometry">
            <mxPoint x="-10" as="offset" />
          </mxGeometry>
        </mxCell>
        <mxCell id="QjKX32XAMbgvtsEEkGVF-50" style="edgeStyle=orthogonalEdgeStyle;rounded=0;orthogonalLoop=1;jettySize=auto;html=1;exitX=1;exitY=0.5;exitDx=0;exitDy=0;entryX=1;entryY=0.5;entryDx=0;entryDy=0;" edge="1" parent="1" source="QjKX32XAMbgvtsEEkGVF-11" target="QjKX32XAMbgvtsEEkGVF-28">
          <mxGeometry relative="1" as="geometry">
            <Array as="points">
              <mxPoint x="510" y="400" />
              <mxPoint x="510" y="290" />
            </Array>
          </mxGeometry>
        </mxCell>
        <mxCell id="QjKX32XAMbgvtsEEkGVF-51" value="No" style="edgeLabel;html=1;align=center;verticalAlign=middle;resizable=0;points=[];" vertex="1" connectable="0" parent="QjKX32XAMbgvtsEEkGVF-50">
          <mxGeometry x="0.0727" y="-1" relative="1" as="geometry">
            <mxPoint x="-11" as="offset" />
          </mxGeometry>
        </mxCell>
        <mxCell id="QjKX32XAMbgvtsEEkGVF-11" value="&lt;font style=&quot;font-size: 10px;&quot;&gt;¿Loas agentes&amp;nbsp;&lt;/font&gt;&lt;div&gt;&lt;font style=&quot;font-size: 10px;&quot;&gt;están cerca?&lt;/font&gt;&lt;/div&gt;" style="rhombus;whiteSpace=wrap;html=1;fontSize=10;spacing=2;spacingLeft=0;" vertex="1" parent="1">
          <mxGeometry x="350" y="350" width="100" height="100" as="geometry" />
        </mxCell>
        <mxCell id="QjKX32XAMbgvtsEEkGVF-35" style="edgeStyle=orthogonalEdgeStyle;rounded=0;orthogonalLoop=1;jettySize=auto;html=1;exitX=0.5;exitY=1;exitDx=0;exitDy=0;entryX=0.5;entryY=0;entryDx=0;entryDy=0;" edge="1" parent="1" source="QjKX32XAMbgvtsEEkGVF-13" target="QjKX32XAMbgvtsEEkGVF-28">
          <mxGeometry relative="1" as="geometry" />
        </mxCell>
        <mxCell id="QjKX32XAMbgvtsEEkGVF-13" value="Adquisición de posiciones de agentes, obstáculos y objetivos" style="rounded=0;whiteSpace=wrap;html=1;fontSize=10;" vertex="1" parent="1">
          <mxGeometry x="340" y="153" width="120" height="70" as="geometry" />
        </mxCell>
        <mxCell id="QjKX32XAMbgvtsEEkGVF-27" value="FIN" style="rounded=0;whiteSpace=wrap;html=1;fontSize=10;" vertex="1" parent="1">
          <mxGeometry x="340" y="990" width="120" height="30" as="geometry" />
        </mxCell>
        <mxCell id="QjKX32XAMbgvtsEEkGVF-36" style="edgeStyle=orthogonalEdgeStyle;rounded=0;orthogonalLoop=1;jettySize=auto;html=1;exitX=0.5;exitY=1;exitDx=0;exitDy=0;entryX=0.5;entryY=0;entryDx=0;entryDy=0;" edge="1" parent="1" source="QjKX32XAMbgvtsEEkGVF-28" target="QjKX32XAMbgvtsEEkGVF-11">
          <mxGeometry relative="1" as="geometry" />
        </mxCell>
        <mxCell id="QjKX32XAMbgvtsEEkGVF-28" value="Acercar agentes según la función de consenso" style="rounded=0;whiteSpace=wrap;html=1;fontSize=10;" vertex="1" parent="1">
          <mxGeometry x="340" y="255" width="120" height="70" as="geometry" />
        </mxCell>
        <mxCell id="QjKX32XAMbgvtsEEkGVF-39" style="edgeStyle=orthogonalEdgeStyle;rounded=0;orthogonalLoop=1;jettySize=auto;html=1;exitX=0.5;exitY=1;exitDx=0;exitDy=0;entryX=0.5;entryY=0;entryDx=0;entryDy=0;" edge="1" parent="1" source="QjKX32XAMbgvtsEEkGVF-29" target="QjKX32XAMbgvtsEEkGVF-30">
          <mxGeometry relative="1" as="geometry" />
        </mxCell>
        <mxCell id="QjKX32XAMbgvtsEEkGVF-29" value="Mover agentes a su posición en la formación (Control de formación)" style="rounded=0;whiteSpace=wrap;html=1;fontSize=10;" vertex="1" parent="1">
          <mxGeometry x="340" y="490" width="120" height="70" as="geometry" />
        </mxCell>
        <mxCell id="QjKX32XAMbgvtsEEkGVF-40" style="edgeStyle=orthogonalEdgeStyle;rounded=0;orthogonalLoop=1;jettySize=auto;html=1;exitX=0.5;exitY=1;exitDx=0;exitDy=0;entryX=0.5;entryY=0;entryDx=0;entryDy=0;" edge="1" parent="1" source="QjKX32XAMbgvtsEEkGVF-30" target="QjKX32XAMbgvtsEEkGVF-31">
          <mxGeometry relative="1" as="geometry" />
        </mxCell>
        <mxCell id="QjKX32XAMbgvtsEEkGVF-41" value="Sí" style="edgeLabel;html=1;align=center;verticalAlign=middle;resizable=0;points=[];" vertex="1" connectable="0" parent="QjKX32XAMbgvtsEEkGVF-40">
          <mxGeometry x="-0.1195" relative="1" as="geometry">
            <mxPoint x="-10" as="offset" />
          </mxGeometry>
        </mxCell>
        <mxCell id="QjKX32XAMbgvtsEEkGVF-48" style="edgeStyle=orthogonalEdgeStyle;rounded=0;orthogonalLoop=1;jettySize=auto;html=1;exitX=1;exitY=0.5;exitDx=0;exitDy=0;entryX=1;entryY=0.5;entryDx=0;entryDy=0;" edge="1" parent="1" source="QjKX32XAMbgvtsEEkGVF-30" target="QjKX32XAMbgvtsEEkGVF-29">
          <mxGeometry relative="1" as="geometry">
            <Array as="points">
              <mxPoint x="510" y="640" />
              <mxPoint x="510" y="525" />
            </Array>
          </mxGeometry>
        </mxCell>
        <mxCell id="QjKX32XAMbgvtsEEkGVF-49" value="No" style="edgeLabel;html=1;align=center;verticalAlign=middle;resizable=0;points=[];" vertex="1" connectable="0" parent="QjKX32XAMbgvtsEEkGVF-48">
          <mxGeometry x="0.0631" y="3" relative="1" as="geometry">
            <mxPoint x="-7" as="offset" />
          </mxGeometry>
        </mxCell>
        <mxCell id="QjKX32XAMbgvtsEEkGVF-30" value="¿Los agentes&lt;div&gt;están&amp;nbsp;&lt;span style=&quot;background-color: initial;&quot;&gt;en sus posiciones?&lt;/span&gt;&lt;/div&gt;" style="rhombus;whiteSpace=wrap;html=1;fontSize=10;spacing=2;spacingLeft=0;" vertex="1" parent="1">
          <mxGeometry x="350" y="590" width="100" height="100" as="geometry" />
        </mxCell>
        <mxCell id="QjKX32XAMbgvtsEEkGVF-42" style="edgeStyle=orthogonalEdgeStyle;rounded=0;orthogonalLoop=1;jettySize=auto;html=1;entryX=0.5;entryY=0;entryDx=0;entryDy=0;" edge="1" parent="1" source="QjKX32XAMbgvtsEEkGVF-31" target="QjKX32XAMbgvtsEEkGVF-32">
          <mxGeometry relative="1" as="geometry" />
        </mxCell>
        <mxCell id="QjKX32XAMbgvtsEEkGVF-31" value="Movilizar al líder hacia el objetivo" style="rounded=0;whiteSpace=wrap;html=1;fontSize=10;" vertex="1" parent="1">
          <mxGeometry x="340" y="740" width="120" height="70" as="geometry" />
        </mxCell>
        <mxCell id="QjKX32XAMbgvtsEEkGVF-43" style="edgeStyle=orthogonalEdgeStyle;rounded=0;orthogonalLoop=1;jettySize=auto;html=1;entryX=0.5;entryY=0;entryDx=0;entryDy=0;" edge="1" parent="1" source="QjKX32XAMbgvtsEEkGVF-32" target="QjKX32XAMbgvtsEEkGVF-27">
          <mxGeometry relative="1" as="geometry" />
        </mxCell>
        <mxCell id="QjKX32XAMbgvtsEEkGVF-44" value="Sí" style="edgeLabel;html=1;align=center;verticalAlign=middle;resizable=0;points=[];" vertex="1" connectable="0" parent="QjKX32XAMbgvtsEEkGVF-43">
          <mxGeometry x="-0.2788" relative="1" as="geometry">
            <mxPoint x="-10" as="offset" />
          </mxGeometry>
        </mxCell>
        <mxCell id="QjKX32XAMbgvtsEEkGVF-45" style="edgeStyle=orthogonalEdgeStyle;rounded=0;orthogonalLoop=1;jettySize=auto;html=1;exitX=1;exitY=0.5;exitDx=0;exitDy=0;entryX=1;entryY=0.5;entryDx=0;entryDy=0;" edge="1" parent="1" source="QjKX32XAMbgvtsEEkGVF-32" target="QjKX32XAMbgvtsEEkGVF-31">
          <mxGeometry relative="1" as="geometry">
            <Array as="points">
              <mxPoint x="510" y="890" />
              <mxPoint x="510" y="775" />
            </Array>
          </mxGeometry>
        </mxCell>
        <mxCell id="QjKX32XAMbgvtsEEkGVF-46" value="No" style="edgeLabel;html=1;align=center;verticalAlign=middle;resizable=0;points=[];" vertex="1" connectable="0" parent="QjKX32XAMbgvtsEEkGVF-45">
          <mxGeometry x="0.0311" y="4" relative="1" as="geometry">
            <mxPoint x="-6" as="offset" />
          </mxGeometry>
        </mxCell>
        <mxCell id="QjKX32XAMbgvtsEEkGVF-32" value="¿El líder llegó al&lt;div&gt;objetivo?&lt;/div&gt;" style="rhombus;whiteSpace=wrap;html=1;fontSize=10;spacing=2;spacingLeft=0;" vertex="1" parent="1">
          <mxGeometry x="350" y="840" width="100" height="100" as="geometry" />
        </mxCell>
      </root>
    </mxGraphModel>
  </diagram>
</mxfile>
